<svg width="406" height="114" viewBox="0 0 406 114" fill="none" xmlns="http://www.w3.org/2000/svg">
<mask id="mask0_840_20407" style="mask-type:alpha" maskUnits="userSpaceOnUse" x="0" y="-207" width="406" height="322">
<rect x="0.800781" y="-206.926" width="405.199" height="320.927" fill="#D9D9D9"/>
</mask>
<g mask="url(#mask0_840_20407)">
<path d="M56.9726 -21.6972L431.642 -203.669L431.642 160.275L56.9726 -21.6972Z" fill="#F9D500"/>
<path d="M11.9531 116.811L386.623 -65.1613L386.623 298.782L11.9531 116.811Z" fill="#FFE200"/>
<path opacity="0.8" d="M20.6387 179.176L484.786 -46.2719L484.786 404.623L20.6387 179.176Z" fill="url(#paint0_linear_840_20407)"/>
<path opacity="0.4" d="M162.639 -13.2949L537.308 -195.267L537.308 168.677L162.639 -13.2949Z" fill="url(#paint1_linear_840_20407)"/>
<path opacity="0.5" d="M176.703 36.3536L551.373 -145.618L551.373 218.325L176.703 36.3536Z" fill="url(#paint2_linear_840_20407)"/>
<path opacity="0.4" d="M290.773 47.4122L665.443 -134.56L665.443 229.384L290.773 47.4122Z" fill="url(#paint3_linear_840_20407)"/>
</g>
<defs>
<linearGradient id="paint0_linear_840_20407" x1="119.49" y1="91.7702" x2="657.117" y2="343.788" gradientUnits="userSpaceOnUse">
<stop stop-color="#FF5C00"/>
<stop offset="1" stop-color="#F9D500"/>
</linearGradient>
<linearGradient id="paint1_linear_840_20407" x1="265.975" y1="85.0476" x2="525.097" y2="-65.1422" gradientUnits="userSpaceOnUse">
<stop stop-color="#FF5C00"/>
<stop offset="1" stop-color="#F9D500"/>
</linearGradient>
<linearGradient id="paint2_linear_840_20407" x1="346.688" y1="124.923" x2="476.767" y2="-33.4124" gradientUnits="userSpaceOnUse">
<stop stop-color="#FF5C00"/>
<stop offset="1" stop-color="#F9D500"/>
</linearGradient>
<linearGradient id="paint3_linear_840_20407" x1="394.109" y1="145.755" x2="653.232" y2="-4.43519" gradientUnits="userSpaceOnUse">
<stop stop-color="#FF5C00"/>
<stop offset="1" stop-color="#F9D500"/>
</linearGradient>
</defs>
</svg>
