<?xml version="1.0" standalone="no"?>
<!DOCTYPE svg PUBLIC "-//W3C//DTD SVG 20010904//EN"
 "http://www.w3.org/TR/2001/REC-SVG-20010904/DTD/svg10.dtd">
<svg version="1.0" xmlns="http://www.w3.org/2000/svg"
 width="2208.000000pt" height="2208.000000pt" viewBox="0 0 2208.000000 2208.000000"
 preserveAspectRatio="xMidYMid meet">
<metadata>
Created by potrace 1.14, written by Peter Selinger 2001-2017
</metadata>
<g transform="translate(0.000000,2208.000000) scale(0.100000,-0.100000)"
fill="#000000" stroke="none">
<path d="M12770 15834 c-14 -3 -41 -10 -60 -17 -19 -6 -37 -12 -40 -12 -25 -7
-120 -59 -120 -66 0 -5 -6 -9 -14 -9 -7 0 -50 -35 -94 -77 -83 -80 -369 -355
-472 -453 -31 -30 -121 -116 -199 -190 -78 -74 -180 -171 -225 -215 -46 -44
-152 -145 -236 -225 -84 -80 -184 -176 -224 -213 -114 -110 -139 -133 -132
-119 5 8 -3 23 -21 39 -15 14 -100 94 -188 179 -88 84 -195 185 -237 226 -218
208 -407 388 -453 433 -29 28 -128 122 -220 210 -93 88 -215 206 -272 262 -57
55 -132 120 -165 143 -119 81 -296 119 -424 90 -27 -7 -57 -13 -66 -15 -9 -2
-27 -9 -40 -16 -13 -8 -25 -14 -28 -14 -45 -10 -153 -88 -250 -181 -41 -40
-113 -109 -160 -154 -47 -45 -154 -147 -238 -228 -84 -81 -193 -185 -241 -232
-48 -47 -177 -170 -286 -275 -108 -104 -239 -230 -289 -278 -50 -49 -162 -157
-250 -240 -87 -84 -208 -200 -268 -259 -61 -60 -111 -108 -112 -108 -1 0 -54
-51 -118 -112 -98 -96 -396 -382 -543 -523 -23 -22 -140 -134 -259 -250 -236
-226 -238 -229 -525 -505 -296 -284 -305 -293 -333 -330 -38 -51 -65 -103 -79
-152 -14 -47 -20 -158 -9 -158 4 0 10 -12 13 -27 7 -32 90 -123 113 -123 3 0
20 -6 37 -14 18 -8 54 -19 82 -24 77 -16 4465 -15 4484 1 10 8 13 8 8 1 -5 -9
887 -11 3596 -10 1981 1 3616 6 3632 9 67 16 185 80 185 100 0 5 9 22 21 38
11 16 17 29 13 29 -3 0 -2 6 3 13 8 11 16 55 14 82 -4 55 -36 154 -54 166 -5
3 -7 8 -6 10 10 13 -80 114 -226 254 -92 88 -209 201 -260 250 -51 50 -164
158 -250 240 -86 83 -191 184 -234 225 -43 41 -166 161 -275 265 -109 105
-249 240 -312 300 -62 61 -180 174 -261 252 -82 78 -185 177 -229 220 -45 43
-161 155 -259 248 -97 94 -221 213 -275 265 -54 52 -176 169 -270 260 -95 91
-217 208 -271 260 -53 52 -170 165 -259 250 -89 85 -210 201 -268 258 -58 56
-109 102 -113 102 -3 0 -19 11 -35 25 -35 30 -135 80 -201 100 -49 16 -208 27
-253 19z"/>
<path d="M18060 10573 c-325 -51 -467 -402 -252 -621 66 -68 132 -102 247
-129 25 -6 133 -5 160 1 58 13 85 21 133 44 28 13 52 28 52 33 0 5 6 9 13 9
33 0 127 135 143 205 12 58 7 156 -9 183 -5 6 -6 12 -2 12 12 0 -37 83 -72
121 -58 64 -150 118 -228 135 -30 7 -156 11 -185 7z"/>
<path d="M4 10421 c-2 -2 -4 -726 -4 -1608 l0 -1603 507 2 508 3 0 808 c0 444
2 807 5 807 3 0 14 -26 25 -57 11 -32 27 -76 36 -98 10 -21 15 -43 13 -47 -3
-4 0 -8 5 -8 6 0 11 -6 11 -14 0 -11 12 -44 50 -141 4 -11 18 -47 30 -80 27
-73 39 -104 52 -129 5 -10 11 -28 14 -40 2 -11 11 -39 20 -61 27 -66 31 -77
59 -155 15 -41 33 -87 41 -102 8 -15 14 -30 12 -35 -1 -4 4 -21 11 -38 16 -35
25 -58 40 -100 6 -16 16 -43 22 -60 7 -16 13 -32 14 -35 1 -3 5 -14 9 -25 44
-115 67 -176 78 -210 7 -22 17 -43 21 -46 5 -3 8 -9 8 -13 -1 -3 0 -8 0 -11 3
-13 6 -21 13 -40 4 -11 12 -32 18 -47 l10 -28 498 0 498 0 7 23 c4 12 8 27 10
32 5 17 96 258 106 280 5 11 24 65 44 120 19 55 39 109 44 120 5 11 19 47 31
80 11 33 24 69 29 80 15 32 24 59 28 79 2 11 7 24 12 30 5 6 16 34 24 62 8 28
22 65 31 83 9 17 16 32 16 33 -1 3 -1 5 39 113 16 44 35 94 42 110 6 17 13 36
15 44 1 8 16 48 32 90 17 42 45 115 62 164 18 48 33 87 34 87 1 0 2 -366 2
-812 l0 -813 499 0 500 0 0 1598 c0 1413 -2 1600 -15 1606 -18 9 -1346 9
-1354 0 -5 -5 -63 -157 -70 -184 -2 -5 -6 -18 -9 -28 -4 -9 -10 -25 -14 -35
-3 -9 -7 -22 -8 -28 -2 -5 -19 -57 -40 -115 -20 -57 -46 -131 -57 -164 -11
-33 -23 -67 -26 -75 -3 -8 -6 -17 -7 -20 -1 -3 -5 -13 -9 -22 -4 -9 -9 -22
-10 -30 -2 -7 -6 -21 -10 -30 -4 -9 -9 -22 -10 -30 -2 -7 -8 -24 -13 -38 -6
-14 -30 -83 -54 -155 -23 -71 -48 -133 -53 -137 -6 -4 -8 -8 -4 -8 6 0 -29
-113 -49 -160 -3 -8 -7 -19 -9 -25 -1 -5 -17 -48 -34 -95 -18 -47 -33 -92 -34
-100 -1 -9 -5 -20 -8 -25 -5 -9 -39 -107 -44 -130 -4 -12 -32 -94 -41 -115 -3
-8 -7 -19 -8 -25 -2 -5 -16 -47 -33 -92 -17 -45 -28 -84 -24 -87 3 -3 -1 -6
-8 -6 -7 0 -11 -3 -7 -6 4 -5 -38 -132 -48 -142 -1 -1 -10 21 -19 50 -10 29
-26 76 -36 103 -23 60 -32 87 -36 100 -1 6 -14 39 -27 75 -13 36 -54 151 -92
255 -37 105 -71 199 -75 210 -5 11 -16 40 -24 65 -16 48 -63 175 -73 200 -3 8
-7 20 -8 25 0 6 -4 18 -8 28 -8 19 -19 49 -22 57 -1 3 -4 12 -8 20 -3 8 -13
35 -21 60 -8 25 -27 77 -41 115 -15 39 -28 75 -30 80 -4 18 -16 50 -26 67 -5
10 -9 25 -9 33 0 8 -4 23 -10 33 -5 9 -39 103 -76 207 -37 105 -71 201 -77
215 -6 14 -11 32 -13 40 -2 9 -9 29 -16 46 l-13 29 -678 0 c-373 0 -680 -2
-683 -4z"/>
<path d="M5297 9694 c-1 -1 -45 -4 -97 -7 -52 -3 -108 -8 -125 -12 -16 -3 -39
-8 -50 -10 -11 -2 -36 -10 -55 -18 -19 -8 -39 -16 -45 -17 -45 -9 -158 -101
-211 -171 -21 -29 -63 -146 -73 -205 -6 -35 -10 -364 -10 -814 0 -694 2 -761
18 -826 36 -140 108 -241 221 -308 54 -32 173 -75 222 -80 14 -2 30 -6 36 -10
7 -4 12 -2 12 4 0 7 6 8 19 1 12 -7 328 -10 902 -8 l883 2 0 343 c1 188 -1
342 -4 343 -3 1 -318 2 -700 3 -658 1 -697 2 -726 20 -17 10 -36 33 -42 50
-13 37 -18 118 -9 133 4 7 4 14 -1 17 -5 3 -7 18 -4 34 l4 29 591 0 c326 0
615 3 642 7 202 28 347 117 417 257 54 108 62 172 62 494 0 285 -2 325 -20
370 -6 17 -9 35 -7 42 2 6 -1 14 -6 18 -6 3 -11 15 -11 26 0 10 -4 19 -9 19
-5 0 -12 11 -15 25 -10 41 -124 148 -189 178 -32 15 -64 27 -72 27 -8 0 -15 5
-15 11 0 5 -4 8 -8 5 -4 -3 -26 -1 -48 4 -21 5 -59 13 -84 16 -36 5 -1387 13
-1393 8z m1033 -651 c18 -20 20 -36 21 -126 1 -56 -1 -116 -5 -133 -13 -58
-18 -59 -467 -59 -224 0 -411 4 -415 7 -8 9 -10 86 -2 94 4 3 2 19 -2 35 -5
16 -5 31 0 34 5 3 5 18 0 34 -4 16 -6 31 -4 34 2 2 6 18 8 35 3 32 20 55 46
64 8 3 191 5 407 4 392 -1 392 -1 413 -23z"/>
<path d="M8277 9694 c-1 -1 -42 -4 -92 -7 -49 -3 -97 -8 -105 -11 -8 -3 -28
-8 -43 -10 -41 -7 -100 -27 -111 -37 -6 -5 -16 -9 -23 -9 -22 0 -95 -52 -146
-104 -50 -50 -102 -143 -112 -199 -3 -18 -9 -48 -13 -67 -10 -42 -8 -1582 2
-1624 4 -16 16 -54 27 -85 12 -31 23 -64 26 -73 3 -10 9 -18 14 -18 5 0 9 -6
9 -12 1 -21 122 -132 170 -155 45 -21 100 -45 110 -48 14 -4 97 -18 110 -20 9
0 20 -3 25 -6 6 -2 38 -4 72 -4 35 0 63 -4 63 -8 0 -4 8 -3 18 2 13 7 23 6 30
-1 9 -9 12 -9 12 0 0 10 5 10 20 2 13 -7 20 -7 20 -1 0 7 8 7 23 2 12 -5 32
-5 45 0 13 5 22 5 22 -2 0 -6 6 -6 19 0 10 6 21 8 24 4 8 -8 106 -7 114 1 3 3
12 1 20 -5 9 -9 13 -8 13 0 0 9 5 9 20 1 13 -7 20 -7 20 -1 0 7 9 7 23 2 12
-5 32 -5 45 0 14 5 22 5 22 -2 0 -6 6 -6 19 0 10 6 21 8 24 4 8 -8 106 -7 114
1 3 3 12 1 20 -5 9 -8 13 -8 13 0 0 7 8 8 23 2 12 -5 31 -5 42 -1 11 4 25 3
32 -2 7 -5 14 -5 18 2 4 7 12 7 26 0 12 -7 19 -7 19 -1 0 7 8 7 23 2 12 -5 32
-5 44 0 13 5 25 4 28 -1 4 -7 13 -6 25 0 12 6 21 7 25 0 3 -5 15 -6 28 -1 44
17 53 0 52 -93 -3 -106 -16 -139 -63 -162 -34 -16 -94 -18 -727 -19 -379 -1
-692 -3 -695 -3 -4 -2 -5 -613 -1 -670 1 -10 176 -12 879 -11 882 1 977 4
1063 37 15 6 30 8 33 5 3 -4 6 -1 6 6 0 7 4 10 9 6 13 -8 121 57 170 102 43
41 114 150 105 164 -3 5 -1 9 4 9 6 0 13 17 17 38 5 20 10 42 11 47 2 6 6 24
10 40 7 34 12 2969 4 2988 -4 9 -219 12 -948 12 -519 0 -944 -1 -945 -1z
m1068 -1264 c1 -300 0 -550 -2 -555 -2 -7 -134 -10 -401 -10 -359 1 -400 3
-430 19 -59 31 -59 32 -58 545 1 425 3 469 18 493 35 54 41 54 473 54 l400 -1
0 -545z"/>
<path d="M10805 9353 c0 -188 3 -345 7 -349 4 -4 108 -6 230 -5 123 1 230 2
238 1 127 -4 178 -4 192 2 9 5 19 5 21 1 4 -7 132 -8 242 -3 17 0 132 0 257
-2 l227 -3 30 -29 c17 -16 28 -33 25 -37 -2 -4 0 -10 5 -13 5 -3 8 -50 7 -103
l-1 -98 -600 -1 c-330 0 -618 -4 -640 -8 -23 -3 -52 -9 -65 -12 -14 -3 -36 -7
-50 -10 -14 -3 -57 -21 -97 -40 -82 -41 -157 -114 -196 -190 -26 -52 -60 -154
-50 -154 3 0 1 -6 -4 -12 -13 -16 -14 -635 -2 -658 4 -8 10 -31 13 -50 11 -67
64 -161 126 -221 33 -31 70 -61 82 -64 13 -4 30 -13 38 -20 13 -11 59 -27 122
-41 10 -2 28 -6 41 -9 12 -3 51 -7 87 -10 99 -7 789 -7 800 0 6 3 10 3 10 -2
0 -9 495 -7 510 2 6 4 10 2 10 -4 0 -6 6 -8 13 -6 6 2 53 7 102 10 113 6 127
8 195 24 83 20 187 79 245 138 46 48 102 139 110 182 2 9 4 16 5 16 2 0 4 11
18 85 5 25 8 80 8 123 -1 42 3 77 8 77 5 0 4 6 -1 13 -10 14 -10 218 0 234 4
7 4 14 0 16 -5 3 -7 29 -6 59 4 70 4 82 1 156 -2 34 1 62 5 62 5 0 5 5 1 12
-11 17 -11 108 -1 108 5 0 5 5 1 12 -11 17 -11 138 0 138 5 0 4 6 -1 13 -10
15 -10 97 0 115 5 6 5 12 0 12 -9 0 -9 242 0 257 4 6 4 13 0 16 -3 3 -7 37 -8
74 -5 117 -20 177 -70 268 -68 123 -197 213 -342 240 -16 3 -39 7 -53 10 -68
15 -208 18 -995 19 l-850 1 0 -342z m1480 -1325 c0 -140 -1 -149 -23 -170
l-23 -23 -387 -1 c-420 -1 -432 0 -449 53 -5 15 -8 74 -8 130 2 111 16 149 57
155 13 2 205 3 428 3 l405 0 0 -147z"/>
<path d="M13541 9690 c-4 -3 -7 -562 -7 -1242 l1 -1238 408 -2 c266 -2 407 0
408 7 1 6 2 399 3 875 l1 865 328 1 c224 0 328 -3 329 -10 0 -6 2 -398 3 -871
l1 -860 410 -5 410 -5 -1 175 c0 96 3 183 7 192 4 9 4 19 0 22 -5 3 -7 27 -5
53 2 26 4 53 3 58 -5 76 -3 165 3 165 5 0 5 5 1 12 -11 18 -11 201 -1 216 5 6
6 12 1 12 -11 0 -11 291 0 308 4 7 4 12 -1 12 -6 0 -9 451 -4 516 1 15 578 13
606 -3 11 -6 29 -21 40 -33 19 -21 20 -39 22 -439 2 -229 3 -606 3 -838 l0
-423 404 -2 403 -3 2 60 c0 33 2 67 3 75 1 9 -2 28 -6 44 -4 15 -3 25 2 22 4
-2 6 10 4 27 -4 38 -5 112 -1 147 1 14 -1 36 -5 49 -5 14 -4 21 1 18 5 -3 7 9
5 26 -3 27 -3 65 -1 152 0 6 -2 27 -3 48 -2 20 -1 37 2 37 4 0 5 15 3 33 -3
28 -4 67 -3 140 0 9 1 46 1 82 0 36 0 72 0 80 0 8 0 44 0 80 0 36 0 72 0 80 0
8 0 44 0 80 0 36 -1 73 -1 83 0 9 0 28 1 42 0 14 0 32 0 40 -2 21 -1 123 1
135 1 6 -2 23 -6 39 -4 15 -3 25 2 22 4 -2 6 10 4 27 -3 29 -3 136 0 162 1 6
-2 21 -6 34 -6 18 -5 22 4 16 8 -5 11 -4 7 2 -3 5 -9 45 -12 87 -7 101 -21
156 -59 236 -31 66 -128 173 -167 185 -10 4 -19 10 -19 15 0 4 -10 10 -22 13
-13 3 -48 15 -78 26 -65 23 -89 28 -185 37 -80 8 -3233 12 -3244 4z"/>
<path d="M17720 9298 c0 -511 0 -1460 0 -1813 l0 -275 415 0 415 0 0 1240 c0
682 -3 1240 -7 1241 -5 0 -191 2 -416 2 l-407 2 0 -397z"/>
<path d="M18910 9692 c0 -8 60 -89 79 -106 11 -11 21 -23 21 -27 0 -7 11 -21
77 -94 12 -14 20 -25 17 -25 -3 0 5 -11 18 -24 13 -13 32 -36 42 -50 11 -15
28 -37 39 -49 10 -12 28 -35 40 -50 12 -15 30 -38 41 -50 10 -12 30 -38 45
-57 14 -19 28 -37 31 -40 3 -3 21 -25 40 -50 19 -25 37 -47 40 -50 3 -3 53
-63 110 -135 57 -71 109 -133 114 -137 7 -5 7 -8 1 -8 -5 0 -5 -4 2 -8 18 -11
203 -246 203 -257 0 -6 -10 -21 -23 -35 -12 -14 -38 -45 -57 -70 -19 -25 -38
-46 -42 -48 -5 -2 -8 -8 -8 -13 0 -5 -30 -47 -67 -93 -38 -45 -79 -98 -93
-116 -14 -19 -34 -45 -46 -59 -11 -14 -43 -55 -71 -91 -100 -130 -525 -676
-542 -695 -9 -12 -21 -26 -25 -33 -6 -9 108 -12 508 -12 l515 0 58 82 c32 46
69 99 83 119 14 19 61 86 105 148 44 62 85 120 90 129 6 9 29 42 53 74 23 31
42 59 42 63 0 4 6 13 13 20 6 8 18 22 26 31 12 15 16 14 37 -10 13 -14 24 -30
24 -36 0 -5 4 -10 8 -10 4 0 16 -15 27 -32 10 -18 29 -44 42 -58 13 -14 23
-28 23 -32 0 -3 6 -13 13 -20 7 -7 30 -38 52 -68 22 -30 43 -56 47 -58 5 -2 8
-10 8 -18 0 -8 5 -14 10 -14 6 0 10 -6 10 -14 0 -8 4 -16 8 -18 5 -1 36 -41
70 -88 34 -47 65 -89 69 -95 5 -5 22 -29 38 -52 l30 -43 518 0 518 0 -28 37
c-28 38 -60 77 -78 97 -6 6 -22 27 -35 46 -13 19 -31 42 -40 50 -9 8 -27 31
-40 50 -13 19 -29 40 -35 46 -5 6 -23 28 -40 49 -59 74 -206 260 -220 276 -7
10 -37 48 -66 85 -30 38 -61 76 -71 85 -10 9 -18 19 -18 23 0 3 -38 53 -85
111 -47 57 -85 109 -85 115 0 5 -4 10 -8 10 -4 0 -25 22 -45 49 -21 27 -51 64
-67 83 -40 44 -45 63 -23 86 19 20 29 32 83 102 19 24 40 49 45 56 6 6 39 48
75 94 36 46 73 92 83 102 9 10 17 20 17 23 0 3 10 17 23 30 25 27 21 23 101
125 32 41 62 77 67 78 5 2 9 10 9 17 0 7 3 15 8 17 4 2 25 26 47 53 22 28 42
52 45 55 3 3 17 21 31 40 15 19 36 46 48 60 11 14 24 30 28 35 5 6 58 72 118
148 61 77 109 141 108 144 -4 8 -978 7 -990 0 -5 -3 -23 -25 -39 -49 -16 -24
-34 -49 -41 -55 -6 -7 -21 -29 -34 -50 -13 -21 -26 -40 -29 -43 -4 -3 -26 -34
-50 -70 -24 -36 -48 -69 -52 -75 -25 -32 -148 -207 -148 -212 0 -3 -10 -18
-22 -33 -13 -16 -31 -38 -40 -51 -10 -12 -19 -21 -21 -18 -31 37 -91 126 -89
132 1 4 -2 7 -7 7 -5 0 -18 15 -30 33 -11 17 -28 41 -38 52 -10 11 -27 33 -37
50 -11 16 -23 34 -28 40 -5 5 -38 51 -74 100 -36 50 -91 125 -122 167 l-57 77
-50 2 c-135 2 -985 4 -985 1z"/>
</g>
</svg>
